<svg width="19" height="19" viewBox="0 0 19 19" fill="none" xmlns="http://www.w3.org/2000/svg">
<path d="M19 9.67924C19 10.5755 18.283 11.2925 17.3868 11.2925H10.934V17.3868C10.934 18.283 10.217 19 9.32075 19C8.42453 19 7.70755 18.283 7.70755 17.3868V11.2925H1.61321C0.716981 11.2925 0 10.5755 0 9.67924C0 8.78302 0.716981 8.06604 1.61321 8.06604H7.70755V1.61321C7.70755 0.716981 8.42453 0 9.32075 0C10.217 0 10.934 0.716981 10.934 1.61321V8.06604H17.3868C18.283 8.06604 19 8.78302 19 9.67924Z" fill="#212121"/>
</svg>
