<svg width="85" height="82" viewBox="0 0 85 82" fill="none" xmlns="http://www.w3.org/2000/svg">
<path d="M73.0001 0.706909H11.0001C5.86769 0.706909 1.70703 4.86757 1.70703 10V72C1.70703 77.1325 5.86769 81.2931 11.0001 81.2931H73.0001C78.1326 81.2931 82.2932 77.1325 82.2932 72V10C82.2932 4.86757 78.1326 0.706909 73.0001 0.706909Z" fill="white" fill-opacity="0.7" stroke="#CBC4FF" stroke-width="1.41379"/>
<path d="M35.8008 36.8672C35.6641 35.9671 35.3507 35.1867 34.8608 34.5259C34.3709 33.8537 33.7443 33.341 32.981 32.9878C32.2176 32.6346 31.3574 32.458 30.4004 32.458C29.113 32.458 27.985 32.7827 27.0166 33.4321C26.0596 34.0701 25.319 35.0044 24.7949 36.2349C24.2708 37.4539 24.0088 38.918 24.0088 40.627C24.0088 42.3701 24.2708 43.8569 24.7949 45.0874C25.319 46.3065 26.0596 47.2293 27.0166 47.856C27.9736 48.4826 29.0902 48.7959 30.3662 48.7959C31.7904 48.7959 32.9867 48.4199 33.9551 47.668C34.9349 46.916 35.5501 45.8792 35.8008 44.5576L40.9961 44.5918C40.8024 46.1527 40.2498 47.5996 39.3384 48.9326C38.4269 50.2656 37.1965 51.3366 35.647 52.1455C34.0975 52.943 32.3145 53.3418 30.2979 53.3418C28.0762 53.3418 26.0938 52.8405 24.3506 51.8379C22.6074 50.8239 21.2402 49.3599 20.249 47.4458C19.2692 45.5317 18.7793 43.2588 18.7793 40.627C18.7793 38.0065 19.2749 35.7393 20.2661 33.8252C21.2687 31.8997 22.6416 30.4357 24.3848 29.4331C26.1393 28.4191 28.1104 27.9121 30.2979 27.9121C32.2005 27.9121 33.9209 28.2653 35.459 28.9717C36.9971 29.6781 38.2446 30.7091 39.2017 32.0649C40.1701 33.4093 40.7682 35.0101 40.9961 36.8672H35.8008ZM61.1279 36.8672C60.9912 35.9671 60.6779 35.1867 60.188 34.5259C59.6981 33.8537 59.0715 33.341 58.3081 32.9878C57.5448 32.6346 56.6846 32.458 55.7275 32.458C54.4401 32.458 53.3122 32.7827 52.3438 33.4321C51.3867 34.0701 50.6462 35.0044 50.1221 36.2349C49.598 37.4539 49.3359 38.918 49.3359 40.627C49.3359 42.3701 49.598 43.8569 50.1221 45.0874C50.6462 46.3065 51.3867 47.2293 52.3438 47.856C53.3008 48.4826 54.4173 48.7959 55.6934 48.7959C57.1175 48.7959 58.3138 48.4199 59.2822 47.668C60.262 46.916 60.8773 45.8792 61.1279 44.5576L66.3232 44.5918C66.1296 46.1527 65.577 47.5996 64.6655 48.9326C63.7541 50.2656 62.5236 51.3366 60.9741 52.1455C59.4246 52.943 57.6416 53.3418 55.625 53.3418C53.4033 53.3418 51.4209 52.8405 49.6777 51.8379C47.9346 50.8239 46.5674 49.3599 45.5762 47.4458C44.5964 45.5317 44.1064 43.2588 44.1064 40.627C44.1064 38.0065 44.6021 35.7393 45.5933 33.8252C46.5959 31.8997 47.9688 30.4357 49.7119 29.4331C51.4665 28.4191 53.4375 27.9121 55.625 27.9121C57.5277 27.9121 59.248 28.2653 60.7861 28.9717C62.3242 29.6781 63.5718 30.7091 64.5288 32.0649C65.4972 33.4093 66.0954 35.0101 66.3232 36.8672H61.1279Z" fill="#999999"/>
</svg>
