<svg width="6" height="85" viewBox="0 0 6 85" fill="none" xmlns="http://www.w3.org/2000/svg">
<path d="M5.33333 82C5.33333 80.5272 4.13942 79.3333 2.66666 79.3333C1.1939 79.3333 -2.68698e-06 80.5272 -2.6226e-06 82C-2.55823e-06 83.4728 1.1939 84.6667 2.66666 84.6667C4.13942 84.6667 5.33333 83.4728 5.33333 82ZM2.66666 82L3.16666 82L3.16666 79.95L2.66666 79.95L2.16666 79.95L2.16666 82L2.66666 82ZM2.66666 75.85L3.16666 75.85L3.16666 71.75L2.66666 71.75L2.16666 71.75L2.16666 75.85L2.66666 75.85ZM2.66666 67.65L3.16666 67.65L3.16666 63.55L2.66666 63.55L2.16666 63.55L2.16666 67.65L2.66666 67.65ZM2.66666 59.45L3.16666 59.45L3.16666 55.35L2.66666 55.35L2.16666 55.35L2.16666 59.45L2.66666 59.45ZM2.66666 51.25L3.16666 51.25L3.16666 47.15L2.66666 47.15L2.16666 47.15L2.16666 51.25L2.66666 51.25ZM2.66666 43.05L3.16666 43.05L3.16666 38.95L2.66666 38.95L2.16666 38.95L2.16666 43.05L2.66666 43.05ZM2.66666 34.85L3.16666 34.85L3.16666 30.75L2.66666 30.75L2.16666 30.75L2.16666 34.85L2.66666 34.85ZM2.66666 26.65L3.16666 26.65L3.16666 22.55L2.66666 22.55L2.16666 22.55L2.16666 26.65L2.66666 26.65ZM2.66666 18.45L3.16666 18.45L3.16666 14.35L2.66666 14.35L2.16666 14.35L2.16666 18.45L2.66666 18.45ZM2.66666 10.25L3.16666 10.25L3.16666 6.15001L2.66666 6.15001L2.16666 6.15001L2.16666 10.25L2.66666 10.25ZM2.66666 2.05001L3.16666 2.05001L3.16666 -2.18557e-08L2.66666 0L2.16666 2.18557e-08L2.16666 2.05001L2.66666 2.05001Z" fill="white"/>
</svg>
