<svg width="659" height="586" viewBox="0 0 659 586" fill="none" xmlns="http://www.w3.org/2000/svg">
<path d="M654 586C654 565.101 597.179 536.629 517.662 525.44L433.577 512.528C412.391 509.047 394.75 495.094 394.75 473.595V449.86C394.75 438.057 401.628 427.286 412.391 422.528C487.571 389.3 540.238 312.252 540.238 222.497C540.248 102.387 445.889 5 329.495 5C213.1 5 118.751 102.387 118.751 222.518C118.751 312.274 171.429 389.31 246.598 422.549C257.372 427.307 264.239 438.078 264.239 449.882V473.616C264.239 495.116 248.708 508.602 225.413 512.55L141.328 525.44C60.4891 538.854 5 561.987 5 584.231" stroke="white" stroke-width="10" stroke-miterlimit="10"/>
</svg>
