<svg width="118" height="67" viewBox="0 0 118 67" fill="none" xmlns="http://www.w3.org/2000/svg">
<path d="M5.33332 63.5C5.33332 62.0272 4.13942 60.8333 2.66666 60.8333C1.19389 60.8333 -7.69377e-06 62.0272 -7.62939e-06 63.5C-7.56502e-06 64.9728 1.19389 66.1667 2.66666 66.1667C4.13942 66.1667 5.33332 64.9728 5.33332 63.5ZM2.66665 0.500005L2.66665 5.02681e-06L2.16665 5.04867e-06L2.16665 0.500005L2.66665 0.500005ZM117.667 0.5L117.667 0L115.613 8.97645e-08L115.613 0.5L115.613 1L117.667 1L117.667 0.5ZM111.506 0.5L111.506 2.69293e-07L107.399 4.48822e-07L107.399 0.5L107.399 1L111.506 1L111.506 0.5ZM103.292 0.500001L103.292 6.28351e-07L99.1845 8.0788e-07L99.1845 0.500001L99.1845 1L103.292 1L103.292 0.500001ZM95.0774 0.500001L95.0774 9.87409e-07L90.9703 1.16694e-06L90.9703 0.500001L90.9703 1L95.0774 1L95.0774 0.500001ZM86.8631 0.500001L86.8631 1.34647e-06L82.756 1.526e-06L82.756 0.500002L82.756 1L86.8631 1L86.8631 0.500001ZM78.6488 0.500002L78.6488 1.70553e-06L74.5417 1.88505e-06L74.5417 0.500002L74.5417 1L78.6488 1L78.6488 0.500002ZM70.4345 0.500002L70.4345 2.06458e-06L66.3274 2.24411e-06L66.3274 0.500002L66.3274 1L70.4345 1L70.4345 0.500002ZM62.2202 0.500002L62.2202 2.42364e-06L58.1131 2.60317e-06L58.1131 0.500003L58.1131 1L62.2202 1L62.2202 0.500002ZM54.006 0.500003L54.006 2.7827e-06L49.8988 2.96223e-06L49.8988 0.500003L49.8988 1L54.006 1L54.006 0.500003ZM45.7917 0.500003L45.7917 3.14176e-06L41.6845 3.32129e-06L41.6845 0.500003L41.6845 1L45.7917 1L45.7917 0.500003ZM37.5774 0.500004L37.5774 3.50081e-06L33.4702 3.68034e-06L33.4702 0.500004L33.4702 1L37.5774 1L37.5774 0.500004ZM29.3631 0.500004L29.3631 3.85987e-06L25.2559 4.0394e-06L25.2559 0.500004L25.2559 1L29.3631 1L29.3631 0.500004ZM21.1488 0.500004L21.1488 4.21893e-06L17.0416 4.39846e-06L17.0416 0.500004L17.0416 1L21.1488 1L21.1488 0.500004ZM12.9345 0.500005L12.9345 4.57799e-06L8.82734 4.75752e-06L8.82734 0.500005L8.82734 1L12.9345 1L12.9345 0.500005ZM4.7202 0.500005L4.7202 4.93705e-06L2.66665 5.02681e-06L2.66665 0.500005L2.66665 1.00001L4.7202 1L4.7202 0.500005ZM2.66665 0.500005L2.16665 0.500005L2.16665 2.46876L2.66665 2.46876L3.16665 2.46876L3.16665 0.500005L2.66665 0.500005ZM2.66665 6.40626L2.16665 6.40626L2.16665 10.3438L2.66665 10.3438L3.16665 10.3438L3.16665 6.40626L2.66665 6.40626ZM2.66665 14.2813L2.16665 14.2813L2.16665 18.2188L2.66665 18.2188L3.16665 18.2188L3.16665 14.2813L2.66665 14.2813ZM2.66665 22.1563L2.16665 22.1563L2.16665 26.0938L2.66665 26.0938L3.16665 26.0938L3.16665 22.1563L2.66665 22.1563ZM2.66666 30.0313L2.16666 30.0313L2.16666 33.9688L2.66666 33.9688L3.16666 33.9688L3.16666 30.0313L2.66666 30.0313ZM2.66666 37.9063L2.16666 37.9063L2.16666 41.8438L2.66666 41.8438L3.16666 41.8438L3.16666 37.9063L2.66666 37.9063ZM2.66666 45.7813L2.16666 45.7813L2.16666 49.7188L2.66666 49.7188L3.16666 49.7188L3.16666 45.7813L2.66666 45.7813ZM2.66666 53.6563L2.16666 53.6563L2.16666 57.5938L2.66666 57.5938L3.16666 57.5938L3.16666 53.6563L2.66666 53.6563ZM2.66666 61.5313L2.16666 61.5313L2.16666 63.5L2.66666 63.5L3.16666 63.5L3.16666 61.5313L2.66666 61.5313Z" fill="white"/>
</svg>
