<svg width="129" height="6" viewBox="0 0 129 6" fill="none" xmlns="http://www.w3.org/2000/svg">
<path d="M126 -0.00016284C124.527 -0.000162822 123.333 1.19374 123.333 2.6665C123.333 4.13926 124.527 5.33317 126 5.33317C127.473 5.33317 128.667 4.13926 128.667 2.6665C128.667 1.19374 127.473 -0.000162857 126 -0.00016284ZM126 2.6665L126 2.1665L124.031 2.1665L124.031 2.6665L124.031 3.1665L126 3.1665L126 2.6665ZM120.094 2.6665L120.094 2.1665L116.156 2.1665L116.156 2.6665L116.156 3.1665L120.094 3.1665L120.094 2.6665ZM112.219 2.6665L112.219 2.1665L108.281 2.1665L108.281 2.6665L108.281 3.1665L112.219 3.1665L112.219 2.6665ZM104.344 2.6665L104.344 2.1665L100.406 2.1665L100.406 2.6665L100.406 3.1665L104.344 3.1665L104.344 2.6665ZM96.4688 2.6665L96.4687 2.1665L92.5312 2.1665L92.5312 2.6665L92.5313 3.1665L96.4688 3.1665L96.4688 2.6665ZM88.5938 2.6665L88.5937 2.1665L84.6562 2.1665L84.6562 2.6665L84.6563 3.1665L88.5938 3.1665L88.5938 2.6665ZM80.7188 2.6665L80.7187 2.1665L76.7812 2.1665L76.7812 2.6665L76.7813 3.1665L80.7188 3.1665L80.7188 2.6665ZM72.8438 2.6665L72.8437 2.1665L68.9062 2.1665L68.9062 2.6665L68.9063 3.1665L72.8438 3.1665L72.8438 2.6665ZM64.9688 2.6665L64.9687 2.1665L61.0312 2.1665L61.0312 2.6665L61.0313 3.1665L64.9688 3.1665L64.9688 2.6665ZM57.0938 2.6665L57.0937 2.1665L53.1562 2.1665L53.1562 2.6665L53.1563 3.1665L57.0938 3.1665L57.0938 2.6665ZM49.2188 2.6665L49.2187 2.1665L45.2812 2.1665L45.2812 2.6665L45.2813 3.1665L49.2188 3.1665L49.2188 2.6665ZM41.3438 2.6665L41.3437 2.1665L37.4062 2.1665L37.4062 2.6665L37.4063 3.1665L41.3438 3.1665L41.3438 2.6665ZM33.4688 2.66651L33.4687 2.16651L29.5312 2.16651L29.5312 2.66651L29.5313 3.16651L33.4688 3.16651L33.4688 2.66651ZM25.5938 2.66651L25.5937 2.16651L21.6562 2.16651L21.6562 2.66651L21.6563 3.16651L25.5938 3.16651L25.5938 2.66651ZM17.7188 2.66651L17.7187 2.16651L13.7812 2.16651L13.7812 2.66651L13.7813 3.16651L17.7188 3.16651L17.7188 2.66651ZM9.84375 2.66651L9.84375 2.16651L5.90625 2.16651L5.90625 2.66651L5.90625 3.16651L9.84375 3.16651L9.84375 2.66651ZM1.96875 2.66651L1.96875 2.16651L-5.96243e-09 2.16651L0 2.66651L5.96243e-09 3.16651L1.96875 3.16651L1.96875 2.66651Z" fill="white"/>
</svg>
