<svg width="82" height="82" viewBox="0 0 82 82" fill="none" xmlns="http://www.w3.org/2000/svg">
<g clip-path="url(#clip0_278_2029)">
<path d="M72.0001 0.706909H10.0001C4.86769 0.706909 0.707031 4.86757 0.707031 10V72C0.707031 77.1325 4.86769 81.2931 10.0001 81.2931H72.0001C77.1326 81.2931 81.2932 77.1325 81.2932 72V10C81.2932 4.86757 77.1326 0.706909 72.0001 0.706909Z" fill="white" fill-opacity="0.7" stroke="#CBC4FF" stroke-width="1.41379"/>
<path d="M72.0001 0.706909H10.0001C4.86769 0.706909 0.707031 4.86757 0.707031 10V72C0.707031 77.1325 4.86769 81.2931 10.0001 81.2931H72.0001C77.1326 81.2931 81.2932 77.1325 81.2932 72V10C81.2932 4.86757 77.1326 0.706909 72.0001 0.706909Z" fill="white" fill-opacity="0.7" stroke="#CBC4FF" stroke-width="1.41379"/>
<path d="M35 28H30C28.8954 28 28 28.8954 28 30V54C28 55.1046 28.8954 56 30 56H35C36.1046 56 37 55.1046 37 54V30C37 28.8954 36.1046 28 35 28Z" fill="#999999"/>
<path d="M53 28H48C46.8954 28 46 28.8954 46 30V54C46 55.1046 46.8954 56 48 56H53C54.1046 56 55 55.1046 55 54V30C55 28.8954 54.1046 28 53 28Z" fill="#999999"/>
</g>
<defs>
<clipPath id="clip0_278_2029">
<rect width="82" height="82" fill="white"/>
</clipPath>
</defs>
</svg>
