<svg width="29" height="29" viewBox="0 0 29 29" fill="none" xmlns="http://www.w3.org/2000/svg">
<circle cx="14.5" cy="14.5" r="14.5" fill="#C2C2C2"/>
<path d="M19.3249 9.85523C20.2608 10.769 20.8982 11.9332 21.1564 13.2006C21.4146 14.4681 21.2821 15.7818 20.7756 16.9757C20.2691 18.1696 19.4113 19.19 18.3107 19.9079C17.2102 20.6259 15.9163 21.0091 14.5927 21.0091C13.2691 21.0091 11.9752 20.6259 10.8747 19.9079C9.77411 19.19 8.91634 18.1696 8.40981 16.9757C7.90329 15.7818 7.77076 14.4681 8.02898 13.2006C8.28721 11.9332 8.92459 10.769 9.86053 9.85522" stroke="white" stroke-width="2.5"/>
<path d="M12.686 6.06604L13.2372 12.7286L6.1297 7.37329L12.686 6.06604Z" fill="white"/>
</svg>
