<svg width="13" height="12" viewBox="0 0 13 12" fill="none" xmlns="http://www.w3.org/2000/svg">
<path d="M0.309347 1.65506e-07H1.53142C1.70224 -0.000167834 1.8409 0.127584 1.84108 0.285384C1.84108 0.290016 1.84098 0.294648 1.84074 0.29928L1.73763 2.26975C2.95099 0.949056 4.73212 0.188568 6.60737 0.190464C10.13 0.190488 13.0026 2.84594 13 6.09977C12.9974 9.3588 10.1362 12 6.60737 12C5.02422 12.002 3.49706 11.4595 2.3238 10.4783C2.1965 10.3731 2.18566 10.1925 2.29959 10.0749C2.30342 10.0709 2.30736 10.0671 2.31142 10.0633L3.18783 9.2538C3.24328 9.20258 3.31774 9.17274 3.39613 9.17031C3.47453 9.16787 3.55099 9.19303 3.61004 9.24069C5.49116 10.7694 8.35779 10.6001 10.0128 8.86255C11.6679 7.12497 11.4846 4.47713 9.60347 2.9484C7.72235 1.41967 4.85572 1.58897 3.20067 3.32654C3.07095 3.46275 2.95093 3.60658 2.84138 3.75713L5.45848 3.64118C5.62912 3.63369 5.77404 3.75537 5.78215 3.91301C5.78239 3.91764 5.78252 3.92227 5.78249 3.9269V5.05572C5.78249 5.21352 5.64402 5.34144 5.47317 5.34144H0.309321C0.138475 5.34144 0 5.21352 0 5.05572V0.28572C2.57492e-05 0.12792 0.138502 1.65506e-07 0.309347 1.65506e-07Z" fill="#9C9C9C"/>
</svg>
