<svg width="6" height="85" viewBox="0 0 6 85" fill="none" xmlns="http://www.w3.org/2000/svg">
<path d="M-2.6226e-06 2.6665C-2.88011e-06 4.13926 1.1939 5.33317 2.66666 5.33317C4.13942 5.33317 5.33333 4.13926 5.33333 2.6665C5.33333 1.19375 4.13942 -0.000162582 2.66666 -0.00016284C1.19391 -0.000163097 -2.3651e-06 1.19374 -2.6226e-06 2.6665ZM2.66666 2.6665L2.16666 2.6665L2.16666 4.7165L2.66666 4.7165L3.16666 4.7165L3.16666 2.6665L2.66666 2.6665ZM2.66666 8.8165L2.16666 8.8165L2.16666 12.9165L2.66666 12.9165L3.16666 12.9165L3.16666 8.8165L2.66666 8.8165ZM2.66666 17.0165L2.16666 17.0165L2.16666 21.1165L2.66666 21.1165L3.16666 21.1165L3.16666 17.0165L2.66666 17.0165ZM2.66666 25.2165L2.16666 25.2165L2.16666 29.3165L2.66666 29.3165L3.16666 29.3165L3.16666 25.2165L2.66666 25.2165ZM2.66666 33.4165L2.16666 33.4165L2.16666 37.5165L2.66666 37.5165L3.16666 37.5165L3.16666 33.4165L2.66666 33.4165ZM2.66666 41.6165L2.16666 41.6165L2.16666 45.7165L2.66666 45.7165L3.16666 45.7165L3.16666 41.6165L2.66666 41.6165ZM2.66666 49.8165L2.16666 49.8165L2.16666 53.9165L2.66666 53.9165L3.16666 53.9165L3.16666 49.8165L2.66666 49.8165ZM2.66665 58.0165L2.16665 58.0165L2.16665 62.1165L2.66665 62.1165L3.16665 62.1165L3.16665 58.0165L2.66665 58.0165ZM2.66665 66.2165L2.16665 66.2165L2.16665 70.3165L2.66665 70.3165L3.16665 70.3165L3.16665 66.2165L2.66665 66.2165ZM2.66665 74.4165L2.16665 74.4165L2.16665 78.5165L2.66665 78.5165L3.16665 78.5165L3.16665 74.4165L2.66665 74.4165ZM2.66665 82.6165L2.16665 82.6165L2.16665 84.6665L2.66665 84.6665L3.16665 84.6665L3.16665 82.6165L2.66665 82.6165Z" fill="white"/>
</svg>
