<svg width="6" height="85" viewBox="0 0 6 85" fill="none" xmlns="http://www.w3.org/2000/svg">
<path d="M5.33329 82C5.33329 80.5272 4.13939 79.3333 2.66663 79.3333C1.19387 79.3333 -4.0834e-05 80.5272 -4.07696e-05 82C-4.07052e-05 83.4728 1.19387 84.6667 2.66663 84.6667C4.13939 84.6667 5.33329 83.4728 5.33329 82ZM2.66663 82L3.16663 82L3.16663 79.95L2.66663 79.95L2.16663 79.95L2.16663 82L2.66663 82ZM2.66663 75.85L3.16663 75.85L3.16663 71.75L2.66663 71.75L2.16663 71.75L2.16663 75.85L2.66663 75.85ZM2.66663 67.65L3.16663 67.65L3.16663 63.55L2.66663 63.55L2.16663 63.55L2.16663 67.65L2.66663 67.65ZM2.66662 59.45L3.16662 59.45L3.16662 55.35L2.66662 55.35L2.16662 55.35L2.16662 59.45L2.66662 59.45ZM2.66662 51.25L3.16662 51.25L3.16662 47.15L2.66662 47.15L2.16662 47.15L2.16662 51.25L2.66662 51.25ZM2.66662 43.05L3.16662 43.05L3.16662 38.95L2.66662 38.95L2.16662 38.95L2.16662 43.05L2.66662 43.05ZM2.66662 34.85L3.16662 34.85L3.16662 30.75L2.66662 30.75L2.16662 30.75L2.16662 34.85L2.66662 34.85ZM2.66662 26.65L3.16662 26.65L3.16662 22.55L2.66662 22.55L2.16662 22.55L2.16662 26.65L2.66662 26.65ZM2.66662 18.45L3.16662 18.45L3.16662 14.35L2.66662 14.35L2.16662 14.35L2.16662 18.45L2.66662 18.45ZM2.66662 10.25L3.16662 10.25L3.16662 6.15001L2.66662 6.15001L2.16662 6.15001L2.16662 10.25L2.66662 10.25ZM2.66662 2.05001L3.16662 2.05001L3.16662 -2.18557e-08L2.66662 0L2.16662 2.18557e-08L2.16662 2.05001L2.66662 2.05001Z" fill="white"/>
</svg>
