<svg width="14" height="14" viewBox="0 0 14 14" fill="none" xmlns="http://www.w3.org/2000/svg">
<path d="M7.80795 0.0458962C7.99312 0.124046 8.12275 0.290773 8.15601 0.484503L8.16442 0.583333V13.4167C8.16442 13.6516 8.02345 13.8637 7.8068 13.9546C7.6211 14.0325 7.41089 14.0083 7.24908 13.8961L7.17256 13.8328L3.75932 10.4786H1.74952C0.840133 10.4786 0.0927856 9.78457 0.00800896 8.89719L0 8.72866V5.24151C0 4.33188 0.693855 3.58432 1.58103 3.49952L1.74952 3.49151H3.76076L7.17433 0.165491C7.34229 0.0018312 7.5919 -0.0452787 7.80795 0.0458962ZM11.3576 1.23571L11.4585 1.30431L11.5726 1.40297C11.646 1.46892 11.7472 1.56446 11.8671 1.68898C12.1065 1.9377 12.4222 2.3042 12.7371 2.78398C13.3674 3.74427 14 5.16756 14 7.00472C14 8.84197 13.3673 10.2632 12.7366 11.2213C12.4216 11.7 12.1058 12.0654 11.8663 12.3133L11.7015 12.4778L11.4837 12.6749L11.4452 12.7065C11.1927 12.9066 10.8251 12.8647 10.6251 12.6122C10.4477 12.3882 10.4611 12.0742 10.6427 11.8665L10.7934 11.7294C10.8477 11.6808 10.9288 11.6048 11.0277 11.5025C11.2258 11.2974 11.4937 10.9881 11.7625 10.5799C12.2991 9.76429 12.8337 8.56277 12.8337 7.00472C12.8337 5.44654 12.2991 4.2425 11.762 3.42427C11.5381 3.08304 11.3146 2.8105 11.1315 2.60991L10.9342 2.40426L10.7192 2.20661C10.4676 2.00587 10.4255 1.63859 10.626 1.38667C10.8043 1.16264 11.114 1.10485 11.3576 1.23571ZM10.1921 3.56892L10.3083 3.65029L10.4642 3.79698L10.5272 3.86305C10.6596 4.00589 10.8303 4.21511 10.9995 4.49333C11.3394 5.05278 11.6685 5.88511 11.6685 6.9983C11.6685 8.11145 11.3394 8.94467 10.9997 9.50494C10.8308 9.78354 10.66 9.99331 10.5278 10.1365L10.4093 10.2581L10.3273 10.334L10.281 10.3733L10.2069 10.4069C10.0525 10.4688 9.69143 10.5696 9.46139 10.2817C9.28354 10.0592 9.29502 9.74636 9.47412 9.53785L9.63094 9.38708L9.6711 9.34476C9.75799 9.25076 9.87941 9.10288 10.0025 8.89987C10.2469 8.49683 10.5021 7.87043 10.5021 6.9983C10.5021 6.12623 10.2469 5.50108 10.0028 5.09938C9.91052 4.9476 9.81921 4.82682 9.74277 4.73646L9.63167 4.6141L9.55178 4.53827C9.30135 4.33851 9.26017 3.97217 9.46057 3.72019C9.63879 3.49609 9.94842 3.43817 10.1921 3.56892Z" fill="#7560FF"/>
</svg>
