<svg width="20" height="25" viewBox="0 0 20 25" fill="none" xmlns="http://www.w3.org/2000/svg">
<path d="M17.875 7.73122L19.0125 6.5956C19.2479 6.358 19.3801 6.03575 19.3801 5.69973C19.3801 5.36371 19.2479 5.04145 19.0125 4.80385C18.7772 4.56625 18.4579 4.43277 18.125 4.43277C17.7922 4.43277 17.4729 4.56625 17.2375 4.80385L16.1125 5.95209C14.3607 4.58411 12.2086 3.8419 9.99378 3.8419C7.77898 3.8419 5.62684 4.58411 3.87503 5.95209L2.73753 4.79123C2.5005 4.55363 2.17966 4.42081 1.84561 4.422C1.51156 4.42318 1.19166 4.55827 0.956283 4.79754C0.720903 5.03682 0.589327 5.36068 0.590499 5.69788C0.591671 6.03508 0.725496 6.358 0.962533 6.5956L2.11253 7.74384C0.741302 9.50726 -0.00272895 11.6849 3.27862e-05 13.9266C-0.00404932 15.536 0.373112 17.123 1.10006 18.5553C1.82701 19.9875 2.88268 21.2236 4.17902 22.1604C5.47536 23.0972 6.97481 23.7075 8.5523 23.9405C10.1298 24.1735 11.7396 24.0224 13.2475 23.4998C14.7553 22.9771 16.1176 22.0982 17.2206 20.9361C18.3235 19.7741 19.1353 18.3627 19.5881 16.8197C20.041 15.2766 20.1218 13.6466 19.8238 12.0657C19.5258 10.4847 18.8576 8.99858 17.875 7.73122ZM10 21.4974C8.51667 21.4974 7.06662 21.0534 5.83326 20.2215C4.59989 19.3896 3.63859 18.2072 3.07094 16.8239C2.50328 15.4405 2.35475 13.9182 2.64414 12.4497C2.93353 10.9811 3.64784 9.63209 4.69673 8.57329C5.74563 7.5145 7.082 6.79345 8.53686 6.50133C9.99171 6.20921 11.4997 6.35914 12.8702 6.93215C14.2406 7.50517 15.4119 8.47553 16.2361 9.72054C17.0602 10.9656 17.5 12.4293 17.5 13.9266C17.5 15.9345 16.7099 17.8602 15.3033 19.28C13.8968 20.6998 11.9892 21.4974 10 21.4974ZM7.50003 2.57047H12.5C12.8316 2.57047 13.1495 2.43753 13.3839 2.2009C13.6183 1.96426 13.75 1.64332 13.75 1.30867C13.75 0.974023 13.6183 0.65308 13.3839 0.416447C13.1495 0.179814 12.8316 0.046875 12.5 0.046875H7.50003C7.16851 0.046875 6.85057 0.179814 6.61615 0.416447C6.38173 0.65308 6.25003 0.974023 6.25003 1.30867C6.25003 1.64332 6.38173 1.96426 6.61615 2.2009C6.85057 2.43753 7.16851 2.57047 7.50003 2.57047ZM11.25 10.1413C11.25 9.80661 11.1183 9.48566 10.8839 9.24903C10.6495 9.0124 10.3316 8.87946 10 8.87946C9.66851 8.87946 9.35057 9.0124 9.11615 9.24903C8.88173 9.48566 8.75003 9.80661 8.75003 10.1413V12.5261C8.467 12.7816 8.2675 13.1179 8.17793 13.4904C8.08837 13.8629 8.11296 14.2541 8.24846 14.6121C8.38396 14.9702 8.62397 15.2783 8.93674 15.4957C9.24951 15.7131 9.6203 15.8295 10 15.8295C10.3798 15.8295 10.7506 15.7131 11.0633 15.4957C11.3761 15.2783 11.6161 14.9702 11.7516 14.6121C11.8871 14.2541 11.9117 13.8629 11.8221 13.4904C11.7326 13.1179 11.5331 12.7816 11.25 12.5261V10.1413Z" fill="black"/>
</svg>
