<svg width="82" height="82" viewBox="0 0 82 82" fill="none" xmlns="http://www.w3.org/2000/svg">
<g clip-path="url(#clip0_278_2070)">
<path d="M16 0.707031H66C74.4461 0.707031 81.293 7.55385 81.293 16V66C81.293 74.4461 74.4461 81.293 66 81.293H16C7.55385 81.293 0.707031 74.4461 0.707031 66V16C0.707031 7.55385 7.55385 0.707031 16 0.707031Z" fill="#7560FF" fill-opacity="0.18" stroke="#D0C8FF" stroke-width="1.41379"/>
<path d="M59.5387 41.0203C55.8727 32.3816 48.9181 26.9964 41.3836 26.956C33.849 26.9156 26.8371 32.2259 23.0787 40.8248C22.9763 41.0561 22.9227 41.306 22.9214 41.559C22.92 41.812 22.9709 42.0625 23.0708 42.2949C26.7368 50.9336 33.6913 56.3188 41.2259 56.3592C48.7605 56.3996 55.7724 51.0893 59.5308 42.4904C59.6332 42.2591 59.6868 42.0091 59.6881 41.7562C59.6895 41.5032 59.6386 41.2527 59.5387 41.0203ZM41.2456 52.6838C35.4201 52.6525 29.9296 48.4146 26.7869 41.5797C30.0027 34.7789 35.5384 30.6002 41.3639 30.6314C47.1894 30.6626 52.6799 34.9005 55.8226 41.7354C52.6068 48.5363 47.0711 52.715 41.2456 52.6838ZM41.3442 34.3068C39.8903 34.299 38.4668 34.7225 37.2536 35.5237C36.0405 36.325 35.0922 37.4679 34.5286 38.8081C33.965 40.1483 33.8115 41.6256 34.0875 43.053C34.3635 44.4804 35.0566 45.794 36.0791 46.8275C37.1016 47.8611 38.4076 48.5682 39.832 48.8594C41.2564 49.1507 42.7352 49.0131 44.0814 48.4639C45.4275 47.9148 46.5806 46.9787 47.3948 45.7742C48.209 44.5697 48.6477 43.1509 48.6555 41.697C48.666 39.7475 47.9016 37.8736 46.5304 36.4877C45.1593 35.1017 43.2937 34.3173 41.3442 34.3068ZM41.285 45.333C40.5581 45.3291 39.8487 45.1097 39.2464 44.7026C38.6442 44.2955 38.1762 43.719 37.9016 43.0459C37.627 42.3728 37.5582 41.6334 37.7038 40.9212C37.8495 40.209 38.203 39.556 38.7198 39.0448C39.2366 38.5335 39.8933 38.187 40.607 38.049C41.3208 37.911 42.0594 37.9877 42.7295 38.2695C43.3996 38.5513 43.9711 39.0255 44.3717 39.632C44.7723 40.2386 44.984 40.9504 44.9801 41.6773C44.9749 42.6521 44.5827 43.5849 43.8897 44.2704C43.1967 44.956 42.2598 45.3382 41.285 45.333Z" fill="white"/>
</g>
<defs>
<clipPath id="clip0_278_2070">
<rect width="82" height="82" fill="white"/>
</clipPath>
</defs>
</svg>
