<svg width="118" height="67" viewBox="0 0 118 67" fill="none" xmlns="http://www.w3.org/2000/svg">
<path d="M112.333 63.5C112.333 62.0272 113.527 60.8333 115 60.8333C116.473 60.8333 117.667 62.0272 117.667 63.5C117.667 64.9728 116.473 66.1667 115 66.1667C113.527 66.1667 112.333 64.9728 112.333 63.5ZM115 0.500005L115 5.02681e-06L115.5 5.04867e-06L115.5 0.500005L115 0.500005ZM2.75382e-06 0.5L2.77567e-06 0L2.05357 8.97645e-08L2.05357 0.5L2.05357 1L2.73196e-06 1L2.75382e-06 0.5ZM6.16072 0.5L6.16072 2.69293e-07L10.2679 4.48822e-07L10.2679 0.5L10.2679 1L6.16072 1L6.16072 0.5ZM14.375 0.500001L14.375 6.28351e-07L18.4821 8.0788e-07L18.4821 0.500001L18.4821 1L14.375 1L14.375 0.500001ZM22.5893 0.500001L22.5893 9.87409e-07L26.6964 1.16694e-06L26.6964 0.500001L26.6964 1L22.5893 1L22.5893 0.500001ZM30.8036 0.500001L30.8036 1.34647e-06L34.9107 1.526e-06L34.9107 0.500002L34.9107 1L30.8036 1L30.8036 0.500001ZM39.0179 0.500002L39.0179 1.70553e-06L43.125 1.88505e-06L43.125 0.500002L43.125 1L39.0179 1L39.0179 0.500002ZM47.2322 0.500002L47.2322 2.06458e-06L51.3393 2.24411e-06L51.3393 0.500002L51.3393 1L47.2322 1L47.2322 0.500002ZM55.4464 0.500002L55.4464 2.42364e-06L59.5536 2.60317e-06L59.5536 0.500003L59.5536 1L55.4464 1L55.4464 0.500002ZM63.6607 0.500003L63.6607 2.7827e-06L67.7679 2.96223e-06L67.7679 0.500003L67.7679 1L63.6607 1L63.6607 0.500003ZM71.875 0.500003L71.875 3.14176e-06L75.9822 3.32129e-06L75.9822 0.500003L75.9822 1L71.875 1L71.875 0.500003ZM80.0893 0.500004L80.0893 3.50081e-06L84.1965 3.68034e-06L84.1965 0.500004L84.1965 1L80.0893 1L80.0893 0.500004ZM88.3036 0.500004L88.3036 3.85987e-06L92.4108 4.0394e-06L92.4108 0.500004L92.4108 1L88.3036 1L88.3036 0.500004ZM96.5179 0.500004L96.5179 4.21893e-06L100.625 4.39846e-06L100.625 0.500004L100.625 1L96.5179 1L96.5179 0.500004ZM104.732 0.500005L104.732 4.57799e-06L108.839 4.75752e-06L108.839 0.500005L108.839 1L104.732 1L104.732 0.500005ZM112.946 0.500005L112.946 4.93705e-06L115 5.02681e-06L115 0.500005L115 1.00001L112.946 1L112.946 0.500005ZM115 0.500005L115.5 0.500005L115.5 2.46876L115 2.46876L114.5 2.46876L114.5 0.500005L115 0.500005ZM115 6.40626L115.5 6.40626L115.5 10.3438L115 10.3438L114.5 10.3438L114.5 6.40626L115 6.40626ZM115 14.2813L115.5 14.2813L115.5 18.2188L115 18.2188L114.5 18.2188L114.5 14.2813L115 14.2813ZM115 22.1563L115.5 22.1563L115.5 26.0938L115 26.0938L114.5 26.0938L114.5 22.1563L115 22.1563ZM115 30.0313L115.5 30.0313L115.5 33.9688L115 33.9688L114.5 33.9688L114.5 30.0313L115 30.0313ZM115 37.9063L115.5 37.9063L115.5 41.8438L115 41.8438L114.5 41.8438L114.5 37.9063L115 37.9063ZM115 45.7813L115.5 45.7813L115.5 49.7188L115 49.7188L114.5 49.7188L114.5 45.7813L115 45.7813ZM115 53.6563L115.5 53.6563L115.5 57.5938L115 57.5938L114.5 57.5938L114.5 53.6563L115 53.6563ZM115 61.5313L115.5 61.5313L115.5 63.5L115 63.5L114.5 63.5L114.5 61.5313L115 61.5313Z" fill="white"/>
</svg>
